<mxfile host="app.diagrams.net" modified="2024-02-15T12:03:58.801Z" agent="Mozilla/5.0 (Windows NT 10.0; Win64; x64) AppleWebKit/537.36 (KHTML, like Gecko) Chrome/121.0.0.0 Safari/537.36" etag="boaTr4LQOzjDqpF-vt0h" version="23.1.4" type="github">
  <diagram name="Page-1" id="s9mWbbyU-TH7XpIsJag5">
    <mxGraphModel dx="794" dy="412" grid="1" gridSize="10" guides="1" tooltips="1" connect="1" arrows="1" fold="1" page="1" pageScale="1" pageWidth="827" pageHeight="1169" math="0" shadow="0">
      <root>
        <mxCell id="0" />
        <mxCell id="1" parent="0" />
        <mxCell id="C662z4a_HL5uBAjaLeNK-1" value="Player" style="swimlane;fontStyle=1;align=center;verticalAlign=top;childLayout=stackLayout;horizontal=1;startSize=26;horizontalStack=0;resizeParent=1;resizeParentMax=0;resizeLast=0;collapsible=1;marginBottom=0;whiteSpace=wrap;html=1;rounded=1;" vertex="1" parent="1">
          <mxGeometry x="610" y="240" width="160" height="150" as="geometry" />
        </mxCell>
        <mxCell id="C662z4a_HL5uBAjaLeNK-2" value="name : string&amp;nbsp;&lt;br&gt;symbol :string&lt;br&gt;" style="text;strokeColor=none;fillColor=none;align=left;verticalAlign=top;spacingLeft=4;spacingRight=4;overflow=hidden;rotatable=0;points=[[0,0.5],[1,0.5]];portConstraint=eastwest;whiteSpace=wrap;html=1;rounded=1;" vertex="1" parent="C662z4a_HL5uBAjaLeNK-1">
          <mxGeometry y="26" width="160" height="54" as="geometry" />
        </mxCell>
        <mxCell id="C662z4a_HL5uBAjaLeNK-3" value="" style="line;strokeWidth=1;fillColor=none;align=left;verticalAlign=middle;spacingTop=-1;spacingLeft=3;spacingRight=3;rotatable=0;labelPosition=right;points=[];portConstraint=eastwest;strokeColor=inherit;rounded=1;" vertex="1" parent="C662z4a_HL5uBAjaLeNK-1">
          <mxGeometry y="80" width="160" height="8" as="geometry" />
        </mxCell>
        <mxCell id="C662z4a_HL5uBAjaLeNK-4" value="choose_name()&lt;br&gt;&lt;br&gt;choose_symbol()" style="text;strokeColor=none;fillColor=none;align=left;verticalAlign=top;spacingLeft=4;spacingRight=4;overflow=hidden;rotatable=0;points=[[0,0.5],[1,0.5]];portConstraint=eastwest;whiteSpace=wrap;html=1;rounded=1;" vertex="1" parent="C662z4a_HL5uBAjaLeNK-1">
          <mxGeometry y="88" width="160" height="62" as="geometry" />
        </mxCell>
        <mxCell id="C662z4a_HL5uBAjaLeNK-5" value="Board&amp;nbsp;" style="swimlane;fontStyle=1;align=center;verticalAlign=top;childLayout=stackLayout;horizontal=1;startSize=26;horizontalStack=0;resizeParent=1;resizeParentMax=0;resizeLast=0;collapsible=1;marginBottom=0;whiteSpace=wrap;html=1;rounded=1;" vertex="1" parent="1">
          <mxGeometry x="620" y="20" width="170" height="130" as="geometry" />
        </mxCell>
        <mxCell id="C662z4a_HL5uBAjaLeNK-6" value="board :list" style="text;strokeColor=none;fillColor=none;align=left;verticalAlign=top;spacingLeft=4;spacingRight=4;overflow=hidden;rotatable=0;points=[[0,0.5],[1,0.5]];portConstraint=eastwest;whiteSpace=wrap;html=1;rounded=1;" vertex="1" parent="C662z4a_HL5uBAjaLeNK-5">
          <mxGeometry y="26" width="170" height="26" as="geometry" />
        </mxCell>
        <mxCell id="C662z4a_HL5uBAjaLeNK-7" value="" style="line;strokeWidth=1;fillColor=none;align=left;verticalAlign=middle;spacingTop=-1;spacingLeft=3;spacingRight=3;rotatable=0;labelPosition=right;points=[];portConstraint=eastwest;strokeColor=inherit;rounded=1;" vertex="1" parent="C662z4a_HL5uBAjaLeNK-5">
          <mxGeometry y="52" width="170" height="8" as="geometry" />
        </mxCell>
        <mxCell id="C662z4a_HL5uBAjaLeNK-8" value="display_board()&lt;br&gt;update_board()&lt;br&gt;reset_board()&lt;br&gt;&lt;br&gt;" style="text;strokeColor=none;fillColor=none;align=left;verticalAlign=top;spacingLeft=4;spacingRight=4;overflow=hidden;rotatable=0;points=[[0,0.5],[1,0.5]];portConstraint=eastwest;whiteSpace=wrap;html=1;rounded=1;" vertex="1" parent="C662z4a_HL5uBAjaLeNK-5">
          <mxGeometry y="60" width="170" height="70" as="geometry" />
        </mxCell>
        <mxCell id="C662z4a_HL5uBAjaLeNK-9" value="Menu" style="swimlane;fontStyle=1;align=center;verticalAlign=top;childLayout=stackLayout;horizontal=1;startSize=26;horizontalStack=0;resizeParent=1;resizeParentMax=0;resizeLast=0;collapsible=1;marginBottom=0;whiteSpace=wrap;html=1;rounded=1;" vertex="1" parent="1">
          <mxGeometry x="30" y="40" width="160" height="140" as="geometry" />
        </mxCell>
        <mxCell id="C662z4a_HL5uBAjaLeNK-11" value="" style="line;strokeWidth=1;fillColor=none;align=left;verticalAlign=middle;spacingTop=-1;spacingLeft=3;spacingRight=3;rotatable=0;labelPosition=right;points=[];portConstraint=eastwest;strokeColor=inherit;rounded=1;" vertex="1" parent="C662z4a_HL5uBAjaLeNK-9">
          <mxGeometry y="26" width="160" height="8" as="geometry" />
        </mxCell>
        <mxCell id="C662z4a_HL5uBAjaLeNK-12" value="display_main_menu()&lt;br&gt;dispaly_endgame_menu()" style="text;strokeColor=none;fillColor=none;align=left;verticalAlign=top;spacingLeft=4;spacingRight=4;overflow=hidden;rotatable=0;points=[[0,0.5],[1,0.5]];portConstraint=eastwest;whiteSpace=wrap;html=1;rounded=1;" vertex="1" parent="C662z4a_HL5uBAjaLeNK-9">
          <mxGeometry y="34" width="160" height="106" as="geometry" />
        </mxCell>
        <mxCell id="C662z4a_HL5uBAjaLeNK-14" value="Game" style="swimlane;fontStyle=1;align=center;verticalAlign=top;childLayout=stackLayout;horizontal=1;startSize=26;horizontalStack=0;resizeParent=1;resizeParentMax=0;resizeLast=0;collapsible=1;marginBottom=0;whiteSpace=wrap;html=1;rounded=1;" vertex="1" parent="1">
          <mxGeometry x="330" y="170" width="160" height="230" as="geometry" />
        </mxCell>
        <mxCell id="C662z4a_HL5uBAjaLeNK-15" value="board = Board()&lt;br&gt;players = Player[]&lt;br&gt;menu = Menu()&lt;br&gt;current_player_index = int" style="text;strokeColor=none;fillColor=none;align=left;verticalAlign=top;spacingLeft=4;spacingRight=4;overflow=hidden;rotatable=0;points=[[0,0.5],[1,0.5]];portConstraint=eastwest;whiteSpace=wrap;html=1;rounded=1;" vertex="1" parent="C662z4a_HL5uBAjaLeNK-14">
          <mxGeometry y="26" width="160" height="74" as="geometry" />
        </mxCell>
        <mxCell id="C662z4a_HL5uBAjaLeNK-16" value="" style="line;strokeWidth=1;fillColor=none;align=left;verticalAlign=middle;spacingTop=-1;spacingLeft=3;spacingRight=3;rotatable=0;labelPosition=right;points=[];portConstraint=eastwest;strokeColor=inherit;rounded=1;" vertex="1" parent="C662z4a_HL5uBAjaLeNK-14">
          <mxGeometry y="100" width="160" height="8" as="geometry" />
        </mxCell>
        <mxCell id="C662z4a_HL5uBAjaLeNK-17" value="start_game()&lt;br&gt;play_turn()&lt;br&gt;check_win()&lt;br&gt;check_draw()&lt;br&gt;restart_game()&lt;br&gt;quit_game()" style="text;strokeColor=none;fillColor=none;align=left;verticalAlign=top;spacingLeft=4;spacingRight=4;overflow=hidden;rotatable=0;points=[[0,0.5],[1,0.5]];portConstraint=eastwest;whiteSpace=wrap;html=1;rounded=1;" vertex="1" parent="C662z4a_HL5uBAjaLeNK-14">
          <mxGeometry y="108" width="160" height="122" as="geometry" />
        </mxCell>
        <mxCell id="C662z4a_HL5uBAjaLeNK-19" value="" style="endArrow=diamond;html=1;rounded=1;endFill=1;" edge="1" parent="1">
          <mxGeometry width="50" height="50" relative="1" as="geometry">
            <mxPoint x="200" y="114" as="sourcePoint" />
            <mxPoint x="321.7475728155341" y="180" as="targetPoint" />
            <Array as="points" />
          </mxGeometry>
        </mxCell>
        <mxCell id="C662z4a_HL5uBAjaLeNK-28" value="" style="endArrow=diamond;html=1;rounded=1;endFill=1;exitX=-0.004;exitY=1.051;exitDx=0;exitDy=0;exitPerimeter=0;" edge="1" parent="1" source="C662z4a_HL5uBAjaLeNK-6">
          <mxGeometry width="50" height="50" relative="1" as="geometry">
            <mxPoint x="430" y="77" as="sourcePoint" />
            <mxPoint x="510" y="170" as="targetPoint" />
            <Array as="points" />
          </mxGeometry>
        </mxCell>
        <mxCell id="C662z4a_HL5uBAjaLeNK-29" value="" style="endArrow=diamond;html=1;rounded=1;endFill=1;" edge="1" parent="1">
          <mxGeometry width="50" height="50" relative="1" as="geometry">
            <mxPoint x="600" y="290" as="sourcePoint" />
            <mxPoint x="500" y="260" as="targetPoint" />
            <Array as="points" />
          </mxGeometry>
        </mxCell>
      </root>
    </mxGraphModel>
  </diagram>
</mxfile>
